# xmcd CD database file
#
# Track frame offsets:
#	182
#	17212
#	32747
#	61697
#	79445
#	99145
#	125170
#	142517
#	155657
#	172232
#	195237
#	213190
#	247950
#
# Disc length: 3628 seconds
#
# Revision: 0
# Processed by: cddbd v1.4b42PL1 Copyright (c) Steve Scherf et al.
# Submitted via: CDex 1.40Beta6
#
DISCID=a50e2a0d
DTITLE=Peter Green Splinter Group - Peter Green Splinter Group
DYEAR=1997
DGENRE=Blues
TTITLE0=Hitch Hiking Woman
TTITLE1=Travelling Riverside Blues
TTITLE2=Look On Yonder Wall
TTITLE3=Homework
TTITLE4=The Stumble
TTITLE5=Help Me
TTITLE6=Watch Your Step
TTITLE7=From 4'till Late
TTITLE8=Steady Rollin' Man
TTITLE9=It Takes Time
TTITLE10=Dark End Of The Street
TTITLE11=Going Down
TTITLE12=Green Manalishi
EXTD=
EXTT0=
EXTT1=
EXTT2=
EXTT3=
EXTT4=
EXTT5=
EXTT6=
EXTT7=
EXTT8=
EXTT9=
EXTT10=
EXTT11=
EXTT12=
PLAYORDER=
